{
  "accessors": [
    {
      "bufferView": 2,
      "componentType": 5126,
      "count": 12487,
      "max": [
        8.132497787475586,
        16.84728240966797,
        19.555511474609375
      ],
      "min": [
        -7.645053386688232,
        -20.668899536132813,
        1.652275562286377
      ],
      "type": "VEC3"
    },
    {
      "bufferView": 2,
      "byteOffset": 149844,
      "componentType": 5126,
      "count": 12487,
      "max": [
        1.0,
        1.0,
        1.0
      ],
      "min": [
        -1.0,
        -1.0,
        -1.0
      ],
      "type": "VEC3"
    },
    {
      "bufferView": 1,
      "componentType": 5126,
      "count": 12487,
      "max": [
        50.0172004699707,
        52.11759948730469
      ],
      "min": [
        -50.01530075073242,
        -45.23080062866211
      ],
      "type": "VEC2"
    },
    {
      "bufferView": 0,
      "componentType": 5125,
      "count": 19203,
      "type": "SCALAR"
    },
    {
      "bufferView": 2,
      "byteOffset": 299688,
      "componentType": 5126,
      "count": 383,
      "max": [
        7.893146514892578,
        16.42268180847168,
        11.026433944702148
      ],
      "min": [
        -7.424834728240967,
        -20.527854919433594,
        3.51558780670166
      ],
      "type": "VEC3"
    },
    {
      "bufferView": 2,
      "byteOffset": 304284,
      "componentType": 5126,
      "count": 383,
      "max": [
        1.0,
        0.999896764755249,
        0.9998944401741028
      ],
      "min": [
        -1.0,
        -0.999891996383667,
        -0.9998975992202759
      ],
      "type": "VEC3"
    },
    {
      "bufferView": 1,
      "byteOffset": 99896,
      "componentType": 5126,
      "count": 383,
      "max": [
        2.9667999744415283,
        3.1938300132751465
      ],
      "min": [
        -2.9680700302124023,
        -2.485949993133545
      ],
      "type": "VEC2"
    },
    {
      "bufferView": 0,
      "byteOffset": 76812,
      "componentType": 5125,
      "count": 549,
      "type": "SCALAR"
    },
    {
      "bufferView": 2,
      "byteOffset": 308880,
      "componentType": 5126,
      "count": 1249,
      "max": [
        1.5108994245529175,
        -20.6324405670166,
        3.0775442123413086
      ],
      "min": [
        -1.413743019104004,
        -20.6324405670166,
        2.4808239936828613
      ],
      "type": "VEC3"
    },
    {
      "bufferView": 2,
      "byteOffset": 323868,
      "componentType": 5126,
      "count": 1249,
      "max": [
        0.0,
        1.0,
        0.022107405588030815
      ],
      "min": [
        0.0,
        0.9996875524520874,
        -0.024996722117066383
      ],
      "type": "VEC3"
    },
    {
      "bufferView": 1,
      "byteOffset": 102960,
      "componentType": 5126,
      "count": 1249,
      "max": [
        1.0,
        0.0
      ],
      "min": [
        0.0,
        0.0
      ],
      "type": "VEC2"
    },
    {
      "bufferView": 0,
      "byteOffset": 79008,
      "componentType": 5125,
      "count": 1551,
      "type": "SCALAR"
    },
    {
      "bufferView": 2,
      "byteOffset": 338856,
      "componentType": 5126,
      "count": 3321,
      "max": [
        1.5108994245529175,
        -20.500165939331055,
        3.0775442123413086
      ],
      "min": [
        -1.413743019104004,
        -20.6324405670166,
        2.4808239936828613
      ],
      "type": "VEC3"
    },
    {
      "bufferView": 2,
      "byteOffset": 378708,
      "componentType": 5126,
      "count": 3321,
      "max": [
        1.0,
        7.251868510138593e-07,
        1.0
      ],
      "min": [
        -1.0,
        -1.0,
        -1.0
      ],
      "type": "VEC3"
    },
    {
      "bufferView": 1,
      "byteOffset": 112952,
      "componentType": 5126,
      "count": 3321,
      "max": [
        1.0,
        0.0
      ],
      "min": [
        0.0,
        0.0
      ],
      "type": "VEC2"
    },
    {
      "bufferView": 0,
      "byteOffset": 85212,
      "componentType": 5125,
      "count": 4701,
      "type": "SCALAR"
    },
    {
      "bufferView": 2,
      "byteOffset": 418560,
      "componentType": 5126,
      "count": 4760,
      "max": [
        7.933241367340088,
        14.439990043640137,
        8.822875022888184
      ],
      "min": [
        -7.933241367340088,
        0.04164314270019531,
        -10.3336181640625
      ],
      "type": "VEC3"
    },
    {
      "bufferView": 2,
      "byteOffset": 475680,
      "componentType": 5126,
      "count": 4760,
      "max": [
        1.0,
        0.999997079372406,
        0.9999105334281921
      ],
      "min": [
        -1.0,
        -0.9999431371688843,
        -0.9999597668647766
      ],
      "type": "VEC3"
    },
    {
      "bufferView": 1,
      "byteOffset": 139520,
      "componentType": 5126,
      "count": 4760,
      "max": [
        3.1453299522399902,
        4.133150100708008
      ],
      "min": [
        -3.1415200233459473,
        -3.1445000171661377
      ],
      "type": "VEC2"
    },
    {
      "bufferView": 0,
      "byteOffset": 104016,
      "componentType": 5125,
      "count": 7098,
      "type": "SCALAR"
    },
    {
      "bufferView": 2,
      "byteOffset": 532800,
      "componentType": 5126,
      "count": 9932,
      "max": [
        7.933404445648193,
        14.439990043640137,
        12.17922306060791
      ],
      "min": [
        -7.933404445648193,
        -0.0074939727783203125,
        -10.3336181640625
      ],
      "type": "VEC3"
    },
    {
      "bufferView": 2,
      "byteOffset": 651984,
      "componentType": 5126,
      "count": 9932,
      "max": [
        1.0,
        0.9999622702598572,
        0.9999984502792358
      ],
      "min": [
        -1.0,
        -1.0,
        -0.9999983310699463
      ],
      "type": "VEC3"
    },
    {
      "bufferView": 1,
      "byteOffset": 177600,
      "componentType": 5126,
      "count": 9932,
      "max": [
        3.0844199657440186,
        3.625040054321289
      ],
      "min": [
        -3.1184699535369873,
        -3.0749499797821045
      ],
      "type": "VEC2"
    },
    {
      "bufferView": 0,
      "byteOffset": 132408,
      "componentType": 5125,
      "count": 13728,
      "type": "SCALAR"
    },
    {
      "bufferView": 2,
      "byteOffset": 771168,
      "componentType": 5126,
      "count": 308,
      "max": [
        7.229625701904297,
        2.1637325286865234,
        -5.116549968719482
      ],
      "min": [
        -7.229625701904297,
        1.0456428527832031,
        -6.4435296058654785
      ],
      "type": "VEC3"
    },
    {
      "bufferView": 2,
      "byteOffset": 774864,
      "componentType": 5126,
      "count": 308,
      "max": [
        0.9986306428909302,
        0.9915041923522949,
        0.9998828768730164
      ],
      "min": [
        -0.9986269474029541,
        -0.48744112253189087,
        -0.9987407922744751
      ],
      "type": "VEC3"
    },
    {
      "bufferView": 1,
      "byteOffset": 257056,
      "componentType": 5126,
      "count": 308,
      "max": [
        0.0,
        0.0
      ],
      "min": [
        0.0,
        0.0
      ],
      "type": "VEC2"
    },
    {
      "bufferView": 0,
      "byteOffset": 187320,
      "componentType": 5125,
      "count": 1500,
      "type": "SCALAR"
    },
    {
      "bufferView": 2,
      "byteOffset": 778560,
      "componentType": 5126,
      "count": 44,
      "max": [
        7.123157978057861,
        2.157512664794922,
        -5.165536880493164
      ],
      "min": [
        -7.123157978057861,
        1.4779834747314453,
        -6.294024467468262
      ],
      "type": "VEC3"
    },
    {
      "bufferView": 2,
      "byteOffset": 779088,
      "componentType": 5126,
      "count": 44,
      "max": [
        0.6767174005508423,
        0.985647976398468,
        0.1536817103624344
      ],
      "min": [
        -0.6767144203186035,
        0.7338564991950989,
        0.046807605773210526
      ],
      "type": "VEC3"
    },
    {
      "bufferView": 1,
      "byteOffset": 259520,
      "componentType": 5126,
      "count": 44,
      "max": [
        0.0,
        0.0
      ],
      "min": [
        0.0,
        0.0
      ],
      "type": "VEC2"
    },
    {
      "bufferView": 0,
      "byteOffset": 193320,
      "componentType": 5125,
      "count": 96,
      "type": "SCALAR"
    },
    {
      "bufferView": 2,
      "byteOffset": 779616,
      "componentType": 5126,
      "count": 16,
      "max": [
        6.303109645843506,
        1.7436981201171875,
        -5.9823317527771
      ],
      "min": [
        -6.303109645843506,
        1.4482460021972656,
        -6.217283725738525
      ],
      "type": "VEC3"
    },
    {
      "bufferView": 2,
      "byteOffset": 779808,
      "componentType": 5126,
      "count": 16,
      "max": [
        0.39101213216781616,
        0.9863985180854797,
        0.19477295875549316
      ],
      "min": [
        -0.3910136818885803,
        0.9009532928466797,
        0.08487321436405182
      ],
      "type": "VEC3"
    },
    {
      "bufferView": 1,
      "byteOffset": 259872,
      "componentType": 5126,
      "count": 16,
      "max": [
        0.0,
        0.0
      ],
      "min": [
        0.0,
        0.0
      ],
      "type": "VEC2"
    },
    {
      "bufferView": 0,
      "byteOffset": 193704,
      "componentType": 5125,
      "count": 36,
      "type": "SCALAR"
    },
    {
      "bufferView": 2,
      "byteOffset": 780000,
      "componentType": 5126,
      "count": 712,
      "max": [
        7.6898884773254395,
        -6.692054271697998,
        23.635042190551758
      ],
      "min": [
        -7.280686855316162,
        -20.266660690307617,
        13.706927299499512
      ],
      "type": "VEC3"
    },
    {
      "bufferView": 2,
      "byteOffset": 788544,
      "componentType": 5126,
      "count": 712,
      "max": [
        0.999995231628418,
        0.9998246431350708,
        0.9996924996376038
      ],
      "min": [
        -0.999995231628418,
        -0.9998939037322998,
        -0.999025821685791
      ],
      "type": "VEC3"
    },
    {
      "bufferView": 1,
      "byteOffset": 260000,
      "componentType": 5126,
      "count": 712,
      "max": [
        2.7822799682617188,
        3.825900077819824
      ],
      "min": [
        -2.782219886779785,
        -2.497189998626709
      ],
      "type": "VEC2"
    },
    {
      "bufferView": 0,
      "byteOffset": 193848,
      "componentType": 5125,
      "count": 888,
      "type": "SCALAR"
    },
    {
      "bufferView": 2,
      "byteOffset": 797088,
      "componentType": 5126,
      "count": 1125,
      "max": [
        5.977839469909668,
        -20.32624626159668,
        13.884523391723633
      ],
      "min": [
        -4.918297290802002,
        -20.77092933654785,
        9.240826606750488
      ],
      "type": "VEC3"
    },
    {
      "bufferView": 2,
      "byteOffset": 810588,
      "componentType": 5126,
      "count": 1125,
      "max": [
        1.0,
        0.9984183311462402,
        0.9998944997787476
      ],
      "min": [
        -1.0,
        -0.9999004602432251,
        -0.999894917011261
      ],
      "type": "VEC3"
    },
    {
      "bufferView": 1,
      "byteOffset": 265696,
      "componentType": 5126,
      "count": 1125,
      "max": [
        3.174530029296875,
        3.6982998847961426
      ],
      "min": [
        -3.1183199882507324,
        -3.076390027999878
      ],
      "type": "VEC2"
    },
    {
      "bufferView": 0,
      "byteOffset": 197400,
      "componentType": 5125,
      "count": 1623,
      "type": "SCALAR"
    },
    {
      "bufferView": 2,
      "byteOffset": 824088,
      "componentType": 5126,
      "count": 3955,
      "max": [
        9.875606536865234,
        -16.994380950927734,
        19.098913192749023
      ],
      "min": [
        -9.459539413452148,
        -20.428926467895508,
        3.2544710636138916
      ],
      "type": "VEC3"
    },
    {
      "bufferView": 2,
      "byteOffset": 871548,
      "componentType": 5126,
      "count": 3955,
      "max": [
        1.0,
        1.0,
        1.0
      ],
      "min": [
        -1.0,
        -1.0,
        -1.0
      ],
      "type": "VEC3"
    },
    {
      "bufferView": 1,
      "byteOffset": 274696,
      "componentType": 5126,
      "count": 3955,
      "max": [
        3.053109884262085,
        3.932460069656372
      ],
      "min": [
        -3.0494298934936523,
        -2.947350025177002
      ],
      "type": "VEC2"
    },
    {
      "bufferView": 0,
      "byteOffset": 203892,
      "componentType": 5125,
      "count": 5784,
      "type": "SCALAR"
    },
    {
      "bufferView": 2,
      "byteOffset": 919008,
      "componentType": 5126,
      "count": 91,
      "max": [
        9.775129318237305,
        -17.462900161743164,
        18.084171295166016
      ],
      "min": [
        -9.381507873535156,
        -18.309005737304688,
        14.221675872802734
      ],
      "type": "VEC3"
    },
    {
      "bufferView": 2,
      "byteOffset": 920100,
      "componentType": 5126,
      "count": 91,
      "max": [
        0.374321311712265,
        0.922063946723938,
        -0.09983671456575394
      ],
      "min": [
        -0.3744131624698639,
        0.9217827320098877,
        -0.10128229111433029
      ],
      "type": "VEC3"
    },
    {
      "bufferView": 1,
      "byteOffset": 306336,
      "componentType": 5126,
      "count": 91,
      "max": [
        0.4784829914569855,
        2.467479944229126
      ],
      "min": [
        -0.4856950044631958,
        1.8329299688339233
      ],
      "type": "VEC2"
    },
    {
      "bufferView": 0,
      "byteOffset": 227028,
      "componentType": 5125,
      "count": 96,
      "type": "SCALAR"
    },
    {
      "bufferView": 2,
      "byteOffset": 921192,
      "componentType": 5126,
      "count": 614,
      "max": [
        -5.577536106109619,
        -18.609542846679688,
        18.8573055267334
      ],
      "min": [
        -7.333743572235107,
        -21.521209716796875,
        16.943403244018555
      ],
      "type": "VEC3"
    },
    {
      "bufferView": 2,
      "byteOffset": 928560,
      "componentType": 5126,
      "count": 614,
      "max": [
        0.9912471771240234,
        0.8898443579673767,
        0.9844869375228882
      ],
      "min": [
        -0.9816036820411682,
        -0.9538500308990479,
        -0.993402898311615
      ],
      "type": "VEC3"
    },
    {
      "bufferView": 1,
      "byteOffset": 307064,
      "componentType": 5126,
      "count": 614,
      "max": [
        3.2789700031280518,
        4.2423601150512695
      ],
      "min": [
        -3.2944300174713135,
        -2.5014901161193848
      ],
      "type": "VEC2"
    },
    {
      "bufferView": 0,
      "byteOffset": 227412,
      "componentType": 5125,
      "count": 858,
      "type": "SCALAR"
    },
    {
      "bufferView": 2,
      "byteOffset": 935928,
      "componentType": 5126,
      "count": 50,
      "max": [
        -5.638753414154053,
        -20.31775665283203,
        18.25117301940918
      ],
      "min": [
        -6.884161472320557,
        -21.40416145324707,
        16.98078727722168
      ],
      "type": "VEC3"
    },
    {
      "bufferView": 2,
      "byteOffset": 936528,
      "componentType": 5126,
      "count": 50,
      "max": [
        0.8560233116149902,
        0.8918662071228027,
        -0.173195943236351
      ],
      "min": [
        0.2979576289653778,
        -0.028081374242901802,
        -0.8774381875991821
      ],
      "type": "VEC3"
    },
    {
      "bufferView": 1,
      "byteOffset": 311976,
      "componentType": 5126,
      "count": 50,
      "max": [
        0.15594899654388428,
        2.392669916152954
      ],
      "min": [
        -3.245650053024292,
        -1.353410005569458
      ],
      "type": "VEC2"
    },
    {
      "bufferView": 0,
      "byteOffset": 230844,
      "componentType": 5125,
      "count": 60,
      "type": "SCALAR"
    },
    {
      "bufferView": 2,
      "byteOffset": 937128,
      "componentType": 5126,
      "count": 60,
      "max": [
        7.146081447601318,
        -18.642465591430664,
        9.017620086669922
      ],
      "min": [
        -6.729730129241943,
        -20.405746459960938,
        3.2679128646850586
      ],
      "type": "VEC3"
    },
    {
      "bufferView": 2,
      "byteOffset": 937848,
      "componentType": 5126,
      "count": 60,
      "max": [
        1.0,
        0.999894380569458,
        0.014534469693899155
      ],
      "min": [
        -0.8018934726715088,
        -0.9998944997787476,
        -0.04488809406757355
      ],
      "type": "VEC3"
    },
    {
      "bufferView": 1,
      "byteOffset": 312376,
      "componentType": 5126,
      "count": 60,
      "max": [
        92.37689971923828,
        31.04439926147461
      ],
      "min": [
        -38.360198974609375,
        0.4043160080909729
      ],
      "type": "VEC2"
    },
    {
      "bufferView": 0,
      "byteOffset": 231084,
      "componentType": 5125,
      "count": 108,
      "type": "SCALAR"
    },
    {
      "bufferView": 2,
      "byteOffset": 938568,
      "componentType": 5126,
      "count": 120,
      "max": [
        3.726163387298584,
        -20.339468002319336,
        11.41221809387207
      ],
      "min": [
        -3.3069887161254883,
        -20.63853645324707,
        8.768097877502441
      ],
      "type": "VEC3"
    },
    {
      "bufferView": 2,
      "byteOffset": 940008,
      "componentType": 5126,
      "count": 120,
      "max": [
        0.9993228316307068,
        0.05595514178276062,
        0.8910309076309204
      ],
      "min": [
        -0.9993170499801636,
        -0.9999893307685852,
        -0.9999040961265564
      ],
      "type": "VEC3"
    },
    {
      "bufferView": 1,
      "byteOffset": 312856,
      "componentType": 5126,
      "count": 120,
      "max": [
        3.0706698894500732,
        1.7309199571609497
      ],
      "min": [
        -3.070780038833618,
        -3.0740599632263184
      ],
      "type": "VEC2"
    },
    {
      "bufferView": 0,
      "byteOffset": 231516,
      "componentType": 5125,
      "count": 168,
      "type": "SCALAR"
    },
    {
      "bufferView": 2,
      "byteOffset": 941448,
      "componentType": 5126,
      "count": 96,
      "max": [
        5.307533264160156,
        -20.450475692749023,
        11.412790298461914
      ],
      "min": [
        -4.888357639312744,
        -20.63853645324707,
        8.768407821655273
      ],
      "type": "VEC3"
    },
    {
      "bufferView": 2,
      "byteOffset": 942600,
      "componentType": 5126,
      "count": 96,
      "max": [
        0.039652835577726364,
        -0.9985082149505615,
        -0.010991347953677177
      ],
      "min": [
        -0.039653532207012177,
        -0.9999366998672485,
        -0.049395933747291565
      ],
      "type": "VEC3"
    },
    {
      "bufferView": 1,
      "byteOffset": 313816,
      "componentType": 5126,
      "count": 96,
      "max": [
        0.7345200181007385,
        1.7672699689865112
      ],
      "min": [
        -0.7262330055236816,
        1.3404899835586548
      ],
      "type": "VEC2"
    },
    {
      "bufferView": 0,
      "byteOffset": 232188,
      "componentType": 5125,
      "count": 120,
      "type": "SCALAR"
    },
    {
      "bufferView": 2,
      "byteOffset": 943752,
      "componentType": 5126,
      "count": 348,
      "max": [
        7.390559196472168,
        -18.934730529785156,
        21.873613357543945
      ],
      "min": [
        -6.848901271820068,
        -20.29718780517578,
        19.663908004760742
      ],
      "type": "VEC3"
    },
    {
      "bufferView": 2,
      "byteOffset": 947928,
      "componentType": 5126,
      "count": 348,
      "max": [
        0.8034716844558716,
        0.9872224926948547,
        0.8193551301956177
      ],
      "min": [
        -0.8034769296646118,
        -0.9872244000434875,
        -0.9978944063186646
      ],
      "type": "VEC3"
    },
    {
      "bufferView": 1,
      "byteOffset": 314584,
      "componentType": 5126,
      "count": 348,
      "max": [
        3.0209600925445557,
        4.357089996337891
      ],
      "min": [
        -3.024980068206787,
        -2.0654499530792236
      ],
      "type": "VEC2"
    },
    {
      "bufferView": 0,
      "byteOffset": 232668,
      "componentType": 5125,
      "count": 480,
      "type": "SCALAR"
    },
    {
      "bufferView": 2,
      "byteOffset": 952104,
      "componentType": 5126,
      "count": 679,
      "max": [
        8.440364837646484,
        -3.9325339794158936,
        25.73063850402832
      ],
      "min": [
        -8.023134231567383,
        -7.191914081573486,
        6.993916988372803
      ],
      "type": "VEC3"
    },
    {
      "bufferView": 2,
      "byteOffset": 960252,
      "componentType": 5126,
      "count": 679,
      "max": [
        0.26870042085647583,
        0.9999892115592957,
        0.9998937845230103
      ],
      "min": [
        -0.9904693365097046,
        -0.9999895095825195,
        -0.9998939633369446
      ],
      "type": "VEC3"
    },
    {
      "bufferView": 1,
      "byteOffset": 317368,
      "componentType": 5126,
      "count": 679,
      "max": [
        3.074589967727661,
        3.794569969177246
      ],
      "min": [
        -3.0685501098632813,
        -2.2144999504089355
      ],
      "type": "VEC2"
    },
    {
      "bufferView": 0,
      "byteOffset": 234588,
      "componentType": 5125,
      "count": 1032,
      "type": "SCALAR"
    },
    {
      "bufferView": 2,
      "byteOffset": 968400,
      "componentType": 5126,
      "count": 1023,
      "max": [
        8.440364837646484,
        -3.9325339794158936,
        25.73063850402832
      ],
      "min": [
        -8.023296356201172,
        -10.871493339538574,
        6.993916988372803
      ],
      "type": "VEC3"
    },
    {
      "bufferView": 2,
      "byteOffset": 980676,
      "componentType": 5126,
      "count": 1023,
      "max": [
        0.9997020959854126,
        0.9999001622200012,
        0.9998936057090759
      ],
      "min": [
        -0.9991308450698853,
        -0.9999895095825195,
        -0.9998939633369446
      ],
      "type": "VEC3"
    },
    {
      "bufferView": 1,
      "byteOffset": 322800,
      "componentType": 5126,
      "count": 1023,
      "max": [
        3.281709909439087,
        4.004149913787842
      ],
      "min": [
        -3.074589967727661,
        -2.0188701152801514
      ],
      "type": "VEC2"
    },
    {
      "bufferView": 0,
      "byteOffset": 238716,
      "componentType": 5125,
      "count": 1467,
      "type": "SCALAR"
    },
    {
      "bufferView": 2,
      "byteOffset": 992952,
      "componentType": 5126,
      "count": 1380,
      "max": [
        7.7985124588012695,
        -6.318057060241699,
        19.374143600463867
      ],
      "min": [
        -7.394960880279541,
        -19.637182235717773,
        2.486271858215332
      ],
      "type": "VEC3"
    },
    {
      "bufferView": 2,
      "byteOffset": 1009512,
      "componentType": 5126,
      "count": 1380,
      "max": [
        1.0,
        0.9999971985816956,
        0.9998972415924072
      ],
      "min": [
        -1.0,
        -0.999894380569458,
        -0.9999421834945679
      ],
      "type": "VEC3"
    },
    {
      "bufferView": 1,
      "byteOffset": 330984,
      "componentType": 5126,
      "count": 1380,
      "max": [
        2.216559886932373,
        3.0686700344085693
      ],
      "min": [
        -2.216559886932373,
        -2.9293999671936035
      ],
      "type": "VEC2"
    },
    {
      "bufferView": 0,
      "byteOffset": 244584,
      "componentType": 5125,
      "count": 1962,
      "type": "SCALAR"
    },
    {
      "bufferView": 2,
      "byteOffset": 1026072,
      "componentType": 5126,
      "count": 576,
      "max": [
        7.539440155029297,
        -6.322790145874023,
        18.896484375
      ],
      "min": [
        -7.354475498199463,
        -7.742709636688232,
        7.948354244232178
      ],
      "type": "VEC3"
    },
    {
      "bufferView": 2,
      "byteOffset": 1032984,
      "componentType": 5126,
      "count": 576,
      "max": [
        0.9988735914230347,
        0.9998948574066162,
        0.9998942017555237
      ],
      "min": [
        -1.0,
        -0.07891865819692612,
        -0.999894380569458
      ],
      "type": "VEC3"
    },
    {
      "bufferView": 1,
      "byteOffset": 342024,
      "componentType": 5126,
      "count": 576,
      "max": [
        1.2500100135803223,
        2.957969903945923
      ],
      "min": [
        -1.226349949836731,
        -0.9012809991836548
      ],
      "type": "VEC2"
    },
    {
      "bufferView": 0,
      "byteOffset": 252432,
      "componentType": 5125,
      "count": 852,
      "type": "SCALAR"
    },
    {
      "bufferView": 2,
      "byteOffset": 1039896,
      "componentType": 5126,
      "count": 1037,
      "max": [
        6.650725841522217,
        -18.42540168762207,
        21.622051239013672
      ],
      "min": [
        -6.223013401031494,
        -20.234844207763672,
        19.872211456298828
      ],
      "type": "VEC3"
    },
    {
      "bufferView": 2,
      "byteOffset": 1052340,
      "componentType": 5126,
      "count": 1037,
      "max": [
        0.9999658465385437,
        0.9312006831169128,
        0.9983115792274475
      ],
      "min": [
        -0.9999658465385437,
        -0.978366494178772,
        -0.9994146823883057
      ],
      "type": "VEC3"
    },
    {
      "bufferView": 1,
      "byteOffset": 346632,
      "componentType": 5126,
      "count": 1037,
      "max": [
        3.048909902572632,
        4.339320182800293
      ],
      "min": [
        -3.042949914932251,
        -2.5448999404907227
      ],
      "type": "VEC2"
    },
    {
      "bufferView": 0,
      "byteOffset": 255840,
      "componentType": 5125,
      "count": 1488,
      "type": "SCALAR"
    },
    {
      "bufferView": 2,
      "byteOffset": 1064784,
      "componentType": 5126,
      "count": 231,
      "max": [
        5.972909927368164,
        -6.739720344543457,
        25.192903518676758
      ],
      "min": [
        -5.555857181549072,
        -9.588211059570313,
        23.497751235961914
      ],
      "type": "VEC3"
    },
    {
      "bufferView": 2,
      "byteOffset": 1067556,
      "componentType": 5126,
      "count": 231,
      "max": [
        1.0,
        0.9999021291732788,
        0.9998915791511536
      ],
      "min": [
        -1.0,
        -0.9998946189880371,
        -0.9999058842658997
      ],
      "type": "VEC3"
    },
    {
      "bufferView": 1,
      "byteOffset": 354928,
      "componentType": 5126,
      "count": 231,
      "max": [
        1.2364000082015991,
        4.026599884033203
      ],
      "min": [
        -1.2364000082015991,
        -1.0688400268554688
      ],
      "type": "VEC2"
    },
    {
      "bufferView": 0,
      "byteOffset": 261792,
      "componentType": 5125,
      "count": 396,
      "type": "SCALAR"
    },
    {
      "bufferView": 2,
      "byteOffset": 1070328,
      "componentType": 5126,
      "count": 3082,
      "max": [
        8.325581550598145,
        10.615123748779297,
        3.1636719703674316
      ],
      "min": [
        -8.111992835998535,
        -11.975751876831055,
        -2.7239298820495605
      ],
      "type": "VEC3"
    },
    {
      "bufferView": 2,
      "byteOffset": 1107312,
      "componentType": 5126,
      "count": 3082,
      "max": [
        1.0,
        0.9999433159828186,
        0.9999573826789856
      ],
      "min": [
        -1.0,
        -0.999972939491272,
        -0.9999724626541138
      ],
      "type": "VEC3"
    },
    {
      "bufferView": 1,
      "byteOffset": 356776,
      "componentType": 5126,
      "count": 3082,
      "max": [
        4.719970226287842,
        4.671370029449463
      ],
      "min": [
        -4.671259880065918,
        -5.119480133056641
      ],
      "type": "VEC2"
    },
    {
      "bufferView": 0,
      "byteOffset": 263376,
      "componentType": 5125,
      "count": 4641,
      "type": "SCALAR"
    },
    {
      "bufferView": 2,
      "byteOffset": 1144296,
      "componentType": 5126,
      "count": 2412,
      "max": [
        7.747737407684326,
        11.023569107055664,
        1.930196762084961
      ],
      "min": [
        -7.606581687927246,
        -15.090658187866211,
        -2.865626811981201
      ],
      "type": "VEC3"
    },
    {
      "bufferView": 2,
      "byteOffset": 1173240,
      "componentType": 5126,
      "count": 2412,
      "max": [
        1.0,
        0.9999917149543762,
        0.999994695186615
      ],
      "min": [
        -1.0,
        -0.9999042749404907,
        -0.9999978542327881
      ],
      "type": "VEC3"
    },
    {
      "bufferView": 1,
      "byteOffset": 381432,
      "componentType": 5126,
      "count": 2412,
      "max": [
        3.0125699043273926,
        2.895020008087158
      ],
      "min": [
        -3.012579917907715,
        -3.0054900646209717
      ],
      "type": "VEC2"
    },
    {
      "bufferView": 0,
      "byteOffset": 281940,
      "componentType": 5125,
      "count": 3714,
      "type": "SCALAR"
    },
    {
      "bufferView": 2,
      "byteOffset": 1202184,
      "componentType": 5126,
      "count": 439,
      "max": [
        8.122459411621094,
        7.4575066566467285,
        4.7123003005981445
      ],
      "min": [
        8.038957595825195,
        -5.099257946014404,
        3.9014389514923096
      ],
      "type": "VEC3"
    },
    {
      "bufferView": 2,
      "byteOffset": 1207452,
      "componentType": 5126,
      "count": 439,
      "max": [
        1.0,
        0.999897301197052,
        0.9998948574066162
      ],
      "min": [
        -5.292130822454055e-08,
        -0.9999010562896729,
        -0.9998946785926819
      ],
      "type": "VEC3"
    },
    {
      "bufferView": 1,
      "byteOffset": 400728,
      "componentType": 5126,
      "count": 439,
      "max": [
        1.5003900527954102,
        1.5003900527954102
      ],
      "min": [
        -1.3886100053787231,
        -1.4069600105285645
      ],
      "type": "VEC2"
    },
    {
      "bufferView": 0,
      "byteOffset": 296796,
      "componentType": 5125,
      "count": 723,
      "type": "SCALAR"
    },
    {
      "bufferView": 2,
      "byteOffset": 1212720,
      "componentType": 5126,
      "count": 393,
      "max": [
        7.710082054138184,
        16.835206985473633,
        7.211117267608643
      ],
      "min": [
        -7.401162624359131,
        -20.421255111694336,
        3.9167850017547607
      ],
      "type": "VEC3"
    },
    {
      "bufferView": 2,
      "byteOffset": 1217436,
      "componentType": 5126,
      "count": 393,
      "max": [
        0.9998552799224854,
        0.9995196461677551,
        0.9884095788002014
      ],
      "min": [
        -0.9998605251312256,
        -0.9995677471160889,
        -0.9983735084533691
      ],
      "type": "VEC3"
    },
    {
      "bufferView": 1,
      "byteOffset": 404240,
      "componentType": 5126,
      "count": 393,
      "max": [
        3.16402006149292,
        3.214319944381714
      ],
      "min": [
        -3.1622300148010254,
        -3.0046699047088623
      ],
      "type": "VEC2"
    },
    {
      "bufferView": 0,
      "byteOffset": 299688,
      "componentType": 5125,
      "count": 528,
      "type": "SCALAR"
    },
    {
      "bufferView": 2,
      "byteOffset": 1222152,
      "componentType": 5126,
      "count": 722,
      "max": [
        15.434109687805176,
        1.0,
        3.733416795730591
      ],
      "min": [
        -105.58350372314453,
        -1.0,
        -3.770878553390503
      ],
      "type": "VEC3"
    },
    {
      "bufferView": 2,
      "byteOffset": 1230816,
      "componentType": 5126,
      "count": 722,
      "max": [
        1.0,
        1.0,
        1.0
      ],
      "min": [
        -1.0,
        -1.0,
        -1.0
      ],
      "type": "VEC3"
    },
    {
      "bufferView": 1,
      "byteOffset": 407384,
      "componentType": 5126,
      "count": 722,
      "max": [
        0.8726007342338562,
        0.9976007342338562
      ],
      "min": [
        0.125,
        0.0
      ],
      "type": "VEC2"
    },
    {
      "bufferView": 0,
      "byteOffset": 301800,
      "componentType": 5125,
      "count": 1044,
      "type": "SCALAR"
    },
    {
      "bufferView": 2,
      "byteOffset": 1239480,
      "componentType": 5126,
      "count": 12,
      "max": [
        15.13786506652832,
        1.0,
        3.4371719360351563
      ],
      "min": [
        -10.823997497558594,
        1.0,
        -3.4746334552764893
      ],
      "type": "VEC3"
    },
    {
      "bufferView": 2,
      "byteOffset": 1239624,
      "componentType": 5126,
      "count": 12,
      "max": [
        0.0,
        1.0,
        0.0
      ],
      "min": [
        0.0,
        1.0,
        0.0
      ],
      "type": "VEC3"
    },
    {
      "bufferView": 1,
      "byteOffset": 413160,
      "componentType": 5126,
      "count": 12,
      "max": [
        0.5879694223403931,
        0.4976007342338562
      ],
      "min": [
        0.41203057765960693,
        0.2866319417953491
      ],
      "type": "VEC2"
    },
    {
      "bufferView": 0,
      "byteOffset": 305976,
      "componentType": 5125,
      "count": 18,
      "type": "SCALAR"
    },
    {
      "bufferView": 2,
      "byteOffset": 1239768,
      "componentType": 5126,
      "count": 12,
      "max": [
        -10.823997497558594,
        1.0,
        3.4371719360351563
      ],
      "min": [
        -15.137864112854004,
        1.0,
        -3.4746334552764893
      ],
      "type": "VEC3"
    },
    {
      "bufferView": 2,
      "byteOffset": 1239912,
      "componentType": 5126,
      "count": 12,
      "max": [
        0.0,
        1.0,
        0.0
      ],
      "min": [
        0.0,
        1.0,
        0.0
      ],
      "type": "VEC3"
    },
    {
      "bufferView": 1,
      "byteOffset": 413256,
      "componentType": 5126,
      "count": 12,
      "max": [
        0.5879694223403931,
        0.29886382818222046
      ],
      "min": [
        0.41203057765960693,
        0.2523992657661438
      ],
      "type": "VEC2"
    },
    {
      "bufferView": 0,
      "byteOffset": 306048,
      "componentType": 5125,
      "count": 18,
      "type": "SCALAR"
    },
    {
      "bufferView": 2,
      "byteOffset": 1240056,
      "componentType": 5126,
      "count": 48,
      "max": [
        14.70311450958252,
        1.000030279159546,
        2.4987778663635254
      ],
      "min": [
        -282.8411865234375,
        -10.38736629486084,
        -1.5352778434753418
      ],
      "type": "VEC3"
    },
    {
      "bufferView": 2,
      "byteOffset": 1240632,
      "componentType": 5126,
      "count": 48,
      "max": [
        1.0,
        0.9727206230163574,
        0.9986675977706909
      ],
      "min": [
        -1.0,
        -0.9727206826210022,
        -0.9986675977706909
      ],
      "type": "VEC3"
    },
    {
      "bufferView": 1,
      "byteOffset": 413352,
      "componentType": 5126,
      "count": 48,
      "max": [
        0.875,
        1.0
      ],
      "min": [
        0.125,
        0.0
      ],
      "type": "VEC2"
    },
    {
      "bufferView": 0,
      "byteOffset": 306120,
      "componentType": 5125,
      "count": 72,
      "type": "SCALAR"
    },
    {
      "bufferView": 2,
      "byteOffset": 1241208,
      "componentType": 5126,
      "count": 214,
      "max": [
        7.630320072174072,
        -18.577672958374023,
        7.210758209228516
      ],
      "min": [
        -7.2153449058532715,
        -20.337509155273438,
        5.612753868103027
      ],
      "type": "VEC3"
    },
    {
      "bufferView": 2,
      "byteOffset": 1243776,
      "componentType": 5126,
      "count": 214,
      "max": [
        0.9990529417991638,
        0.3909599483013153,
        0.9814358949661255
      ],
      "min": [
        -0.9856182336807251,
        -0.5180322527885437,
        -0.9887400269508362
      ],
      "type": "VEC3"
    },
    {
      "bufferView": 1,
      "byteOffset": 413736,
      "componentType": 5126,
      "count": 214,
      "max": [
        0.9314420223236084,
        1.6409801244735718
      ],
      "min": [
        -1.397570013999939,
        -0.9696570038795471
      ],
      "type": "VEC2"
    },
    {
      "bufferView": 0,
      "byteOffset": 306408,
      "componentType": 5125,
      "count": 432,
      "type": "SCALAR"
    },
    {
      "bufferView": 2,
      "byteOffset": 1246344,
      "componentType": 5126,
      "count": 60,
      "max": [
        6.929077625274658,
        -19.106101989746094,
        7.199429035186768
      ],
      "min": [
        -6.514102458953857,
        -20.337509155273438,
        5.612753868103027
      ],
      "type": "VEC3"
    },
    {
      "bufferView": 2,
      "byteOffset": 1247064,
      "componentType": 5126,
      "count": 60,
      "max": [
        0.9990529417991638,
        0.35298630595207214,
        0.9597723484039307
      ],
      "min": [
        -0.9259313344955444,
        -0.5180322527885437,
        -0.9887400269508362
      ],
      "type": "VEC3"
    },
    {
      "bufferView": 1,
      "byteOffset": 415448,
      "componentType": 5126,
      "count": 60,
      "max": [
        3.1435699462890625,
        2.5681676864624023
      ],
      "min": [
        -1.4581773281097412,
        -3.1470699310302734
      ],
      "type": "VEC2"
    },
    {
      "bufferView": 0,
      "byteOffset": 308136,
      "componentType": 5125,
      "count": 120,
      "type": "SCALAR"
    },
    {
      "bufferView": 2,
      "byteOffset": 1247784,
      "componentType": 5126,
      "count": 2314,
      "max": [
        0.31421196460723877,
        0.30531546473503113,
        0.3047950565814972
      ],
      "min": [
        -2.153890371322632,
        -0.303271621465683,
        -0.30390888452529907
      ],
      "type": "VEC3"
    },
    {
      "bufferView": 2,
      "byteOffset": 1275552,
      "componentType": 5126,
      "count": 2314,
      "max": [
        1.0,
        0.9999991059303284,
        0.9999991059303284
      ],
      "min": [
        -1.0,
        -0.9999991059303284,
        -0.9999991059303284
      ],
      "type": "VEC3"
    },
    {
      "bufferView": 1,
      "byteOffset": 415928,
      "componentType": 5126,
      "count": 2314,
      "max": [
        0.8731539845466614,
        0.9821299910545349
      ],
      "min": [
        0.027094999328255653,
        0.03241598606109619
      ],
      "type": "VEC2"
    },
    {
      "bufferView": 0,
      "byteOffset": 308616,
      "componentType": 5125,
      "count": 7272,
      "type": "SCALAR"
    },
    {
      "bufferView": 2,
      "byteOffset": 1303320,
      "componentType": 5126,
      "count": 6818,
      "max": [
        0.18697300553321838,
        0.2199924737215042,
        0.21935108304023743
      ],
      "min": [
        -2.026651382446289,
        -0.21782363951206207,
        -0.2184648960828781
      ],
      "type": "VEC3"
    },
    {
      "bufferView": 2,
      "byteOffset": 1385136,
      "componentType": 5126,
      "count": 6818,
      "max": [
        1.0,
        1.0,
        1.0
      ],
      "min": [
        -1.0,
        -1.0,
        -1.0
      ],
      "type": "VEC3"
    },
    {
      "bufferView": 1,
      "byteOffset": 434440,
      "componentType": 5126,
      "count": 6818,
      "max": [
        1.5542089939117432,
        2.028872013092041
      ],
      "min": [
        -0.7247629761695862,
        -1.2702019214630127
      ],
      "type": "VEC2"
    },
    {
      "bufferView": 0,
      "byteOffset": 337704,
      "componentType": 5125,
      "count": 9048,
      "type": "SCALAR"
    },
    {
      "bufferView": 2,
      "byteOffset": 1466952,
      "componentType": 5126,
      "count": 1024,
      "max": [
        0.3480449914932251,
        0.5368144512176514,
        0.5361769199371338
      ],
      "min": [
        -2.187723398208618,
        -0.5346536040306091,
        -0.5352908372879028
      ],
      "type": "VEC3"
    },
    {
      "bufferView": 2,
      "byteOffset": 1479240,
      "componentType": 5126,
      "count": 1024,
      "max": [
        0.9881666302680969,
        0.4824505150318146,
        0.4824485182762146
      ],
      "min": [
        -0.9881666302680969,
        -0.4824433922767639,
        -0.4824577271938324
      ],
      "type": "VEC3"
    },
    {
      "bufferView": 3,
      "componentType": 5126,
      "count": 1024,
      "max": [
        0.4824572801589966,
        0.363957941532135,
        0.9999998807907104,
        1.0
      ],
      "min": [
        -0.4824582636356354,
        -0.013845348730683327,
        0.8182628154754639,
        -1.0
      ],
      "type": "VEC4"
    },
    {
      "bufferView": 1,
      "byteOffset": 488984,
      "componentType": 5126,
      "count": 1024,
      "max": [
        0.9935449957847595,
        0.9826560020446777
      ],
      "min": [
        0.02621600031852722,
        0.015326976776123047
      ],
      "type": "VEC2"
    },
    {
      "bufferView": 1,
      "byteOffset": 497176,
      "componentType": 5126,
      "count": 1024,
      "max": [
        0.9935449957847595,
        0.9826560020446777
      ],
      "min": [
        0.02621600031852722,
        0.015326976776123047
      ],
      "type": "VEC2"
    },
    {
      "bufferView": 0,
      "byteOffset": 373896,
      "componentType": 5125,
      "count": 4608,
      "type": "SCALAR"
    },
    {
      "bufferView": 2,
      "byteOffset": 1491528,
      "componentType": 5126,
      "count": 272,
      "max": [
        0.31712496280670166,
        0.5368144512176514,
        0.5361768007278442
      ],
      "min": [
        -2.1568033695220947,
        -0.5346536040306091,
        -0.5352908372879028
      ],
      "type": "VEC3"
    },
    {
      "bufferView": 2,
      "byteOffset": 1494792,
      "componentType": 5126,
      "count": 272,
      "max": [
        3.2900425139814615e-05,
        0.9999991059303284,
        0.9999991059303284
      ],
      "min": [
        -3.288991138106212e-05,
        -0.9999991059303284,
        -0.9999991059303284
      ],
      "type": "VEC3"
    },
    {
      "bufferView": 3,
      "byteOffset": 16384,
      "componentType": 5126,
      "count": 272,
      "max": [
        1.0,
        2.3232685634866357e-05,
        2.329550807189662e-05,
        1.0
      ],
      "min": [
        -1.0,
        -4.297034593037097e-06,
        -5.947270437900443e-06,
        -1.0
      ],
      "type": "VEC4"
    },
    {
      "bufferView": 1,
      "byteOffset": 505368,
      "componentType": 5126,
      "count": 272,
      "max": [
        0.6331689953804016,
        0.8611760139465332
      ],
      "min": [
        0.3668310046195984,
        0.1388239860534668
      ],
      "type": "VEC2"
    },
    {
      "bufferView": 1,
      "byteOffset": 507544,
      "componentType": 5126,
      "count": 272,
      "max": [
        0.6331689953804016,
        0.8611760139465332
      ],
      "min": [
        0.3668310046195984,
        0.1388239860534668
      ],
      "type": "VEC2"
    },
    {
      "bufferView": 0,
      "byteOffset": 392328,
      "componentType": 5125,
      "count": 768,
      "type": "SCALAR"
    },
    {
      "bufferView": 2,
      "byteOffset": 1498056,
      "componentType": 5126,
      "count": 552,
      "max": [
        0.04698094725608826,
        0.3099396228790283,
        0.30986496806144714
      ],
      "min": [
        -0.2517141103744507,
        -0.30829930305480957,
        -0.30864906311035156
      ],
      "type": "VEC3"
    },
    {
      "bufferView": 2,
      "byteOffset": 1504680,
      "componentType": 5126,
      "count": 552,
      "max": [
        1.0,
        1.0,
        1.0
      ],
      "min": [
        -0.9999204277992249,
        -1.0,
        -1.0
      ],
      "type": "VEC3"
    },
    {
      "bufferView": 1,
      "byteOffset": 509720,
      "componentType": 5126,
      "count": 552,
      "max": [
        0.8731539845466614,
        0.9821299910545349
      ],
      "min": [
        0.027094999328255653,
        0.03241598606109619
      ],
      "type": "VEC2"
    },
    {
      "bufferView": 0,
      "byteOffset": 395400,
      "componentType": 5125,
      "count": 1818,
      "type": "SCALAR"
    },
    {
      "bufferView": 2,
      "byteOffset": 1511304,
      "componentType": 5126,
      "count": 2683,
      "max": [
        0.09035274386405945,
        0.22339391708374023,
        0.22304311394691467
      ],
      "min": [
        -0.21533824503421783,
        -0.22147727012634277,
        -0.22182708978652954
      ],
      "type": "VEC3"
    },
    {
      "bufferView": 2,
      "byteOffset": 1543500,
      "componentType": 5126,
      "count": 2683,
      "max": [
        1.0,
        1.0,
        1.0
      ],
      "min": [
        -1.0,
        -1.0,
        -1.0
      ],
      "type": "VEC3"
    },
    {
      "bufferView": 1,
      "byteOffset": 514136,
      "componentType": 5126,
      "count": 2683,
      "max": [
        2.9917099475860596,
        4.265504837036133
      ],
      "min": [
        -4.909811973571777,
        -7.797009468078613
      ],
      "type": "VEC2"
    },
    {
      "bufferView": 0,
      "byteOffset": 402672,
      "componentType": 5125,
      "count": 3948,
      "type": "SCALAR"
    },
    {
      "bufferView": 2,
      "byteOffset": 1575696,
      "componentType": 5126,
      "count": 256,
      "max": [
        0.026701271533966064,
        0.545325517654419,
        0.5449756383895874
      ],
      "min": [
        -0.2848140597343445,
        -0.5434095859527588,
        -0.5437594652175903
      ],
      "type": "VEC3"
    },
    {
      "bufferView": 2,
      "byteOffset": 1578768,
      "componentType": 5126,
      "count": 256,
      "max": [
        0.9867462515830994,
        0.4824366271495819,
        0.4824370741844177
      ],
      "min": [
        -0.9881658554077148,
        -0.482439786195755,
        -0.4824380576610565
      ],
      "type": "VEC3"
    },
    {
      "bufferView": 3,
      "byteOffset": 20736,
      "componentType": 5126,
      "count": 256,
      "max": [
        0.4824380874633789,
        0.008709327317774296,
        0.9999999403953552,
        1.0
      ],
      "min": [
        -0.4824370741844177,
        -0.01255506370216608,
        0.87593013048172,
        -1.0
      ],
      "type": "VEC4"
    },
    {
      "bufferView": 1,
      "byteOffset": 535600,
      "componentType": 5126,
      "count": 256,
      "max": [
        0.9935449957847595,
        0.9826560020446777
      ],
      "min": [
        0.02621600031852722,
        0.015326976776123047
      ],
      "type": "VEC2"
    },
    {
      "bufferView": 1,
      "byteOffset": 537648,
      "componentType": 5126,
      "count": 256,
      "max": [
        0.9935449957847595,
        0.9826560020446777
      ],
      "min": [
        0.02621600031852722,
        0.015326976776123047
      ],
      "type": "VEC2"
    },
    {
      "bufferView": 0,
      "byteOffset": 418464,
      "componentType": 5125,
      "count": 1152,
      "type": "SCALAR"
    },
    {
      "bufferView": 2,
      "byteOffset": 1581840,
      "componentType": 5126,
      "count": 68,
      "max": [
        -0.004716992378234863,
        0.545325517654419,
        0.5449756383895874
      ],
      "min": [
        -0.2564135789871216,
        -0.5434095859527588,
        -0.5437593460083008
      ],
      "type": "VEC3"
    },
    {
      "bufferView": 2,
      "byteOffset": 1582656,
      "componentType": 5126,
      "count": 68,
      "max": [
        4.704733783000847e-06,
        1.0,
        1.0
      ],
      "min": [
        -4.6981902414700016e-05,
        -1.0,
        -1.0
      ],
      "type": "VEC3"
    },
    {
      "bufferView": 3,
      "byteOffset": 24832,
      "componentType": 5126,
      "count": 68,
      "max": [
        1.0,
        3.3221193007193506e-05,
        3.322125121485442e-05,
        1.0
      ],
      "min": [
        1.0,
        -3.3267458547925344e-06,
        -3.3267601793340873e-06,
        -1.0
      ],
      "type": "VEC4"
    },
    {
      "bufferView": 1,
      "byteOffset": 539696,
      "componentType": 5126,
      "count": 68,
      "max": [
        0.6331689953804016,
        0.8611760139465332
      ],
      "min": [
        0.3668310046195984,
        0.1388239860534668
      ],
      "type": "VEC2"
    },
    {
      "bufferView": 1,
      "byteOffset": 540240,
      "componentType": 5126,
      "count": 68,
      "max": [
        0.6331689953804016,
        0.8611760139465332
      ],
      "min": [
        0.3668310046195984,
        0.1388239860534668
      ],
      "type": "VEC2"
    },
    {
      "bufferView": 0,
      "byteOffset": 423072,
      "componentType": 5125,
      "count": 192,
      "type": "SCALAR"
    },
    {
      "bufferView": 2,
      "byteOffset": 1583472,
      "componentType": 5126,
      "count": 552,
      "max": [
        0.25173354148864746,
        0.3099396228790283,
        0.30986496806144714
      ],
      "min": [
        -0.04696154594421387,
        -0.30829930305480957,
        -0.30864906311035156
      ],
      "type": "VEC3"
    },
    {
      "bufferView": 2,
      "byteOffset": 1590096,
      "componentType": 5126,
      "count": 552,
      "max": [
        0.9999204277992249,
        1.0,
        1.0
      ],
      "min": [
        -1.0,
        -1.0,
        -1.0
      ],
      "type": "VEC3"
    },
    {
      "bufferView": 1,
      "byteOffset": 540784,
      "componentType": 5126,
      "count": 552,
      "max": [
        0.8731539845466614,
        0.9821299910545349
      ],
      "min": [
        0.027094999328255653,
        0.03241598606109619
      ],
      "type": "VEC2"
    },
    {
      "bufferView": 0,
      "byteOffset": 423840,
      "componentType": 5125,
      "count": 1818,
      "type": "SCALAR"
    },
    {
      "bufferView": 2,
      "byteOffset": 1596720,
      "componentType": 5126,
      "count": 2646,
      "max": [
        0.21535766124725342,
        0.22339367866516113,
        0.22304311394691467
      ],
      "min": [
        -0.09033322334289551,
        -0.22147727012634277,
        -0.22182708978652954
      ],
      "type": "VEC3"
    },
    {
      "bufferView": 2,
      "byteOffset": 1628472,
      "componentType": 5126,
      "count": 2646,
      "max": [
        1.0,
        1.0,
        1.0
      ],
      "min": [
        -1.0,
        -1.0,
        -1.0
      ],
      "type": "VEC3"
    },
    {
      "bufferView": 1,
      "byteOffset": 545200,
      "componentType": 5126,
      "count": 2646,
      "max": [
        2.9917099475860596,
        4.265504837036133
      ],
      "min": [
        -4.909811973571777,
        -7.797009468078613
      ],
      "type": "VEC2"
    },
    {
      "bufferView": 0,
      "byteOffset": 431112,
      "componentType": 5125,
      "count": 3948,
      "type": "SCALAR"
    },
    {
      "bufferView": 2,
      "byteOffset": 1660224,
      "componentType": 5126,
      "count": 256,
      "max": [
        0.28483355045318604,
        0.545325517654419,
        0.5449756383895874
      ],
      "min": [
        -0.026681900024414063,
        -0.5434095859527588,
        -0.5437594652175903
      ],
      "type": "VEC3"
    },
    {
      "bufferView": 2,
      "byteOffset": 1663296,
      "componentType": 5126,
      "count": 256,
      "max": [
        0.9881660342216492,
        0.4824371039867401,
        0.4824378788471222
      ],
      "min": [
        -0.9867522120475769,
        -0.4824405908584595,
        -0.4824385941028595
      ],
      "type": "VEC3"
    },
    {
      "bufferView": 3,
      "byteOffset": 25920,
      "componentType": 5126,
      "count": 256,
      "max": [
        0.4824379086494446,
        0.00870879739522934,
        0.9999999403953552,
        1.0
      ],
      "min": [
        -0.4824385941028595,
        -0.01255543902516365,
        0.8759298324584961,
        -1.0
      ],
      "type": "VEC4"
    },
    {
      "bufferView": 1,
      "byteOffset": 566368,
      "componentType": 5126,
      "count": 256,
      "max": [
        0.9935449957847595,
        0.9826560020446777
      ],
      "min": [
        0.02621600031852722,
        0.015326976776123047
      ],
      "type": "VEC2"
    },
    {
      "bufferView": 1,
      "byteOffset": 568416,
      "componentType": 5126,
      "count": 256,
      "max": [
        0.9935449957847595,
        0.9826560020446777
      ],
      "min": [
        0.02621600031852722,
        0.015326976776123047
      ],
      "type": "VEC2"
    },
    {
      "bufferView": 0,
      "byteOffset": 446904,
      "componentType": 5125,
      "count": 1152,
      "type": "SCALAR"
    },
    {
      "bufferView": 2,
      "byteOffset": 1666368,
      "componentType": 5126,
      "count": 68,
      "max": [
        0.25643301010131836,
        0.545325517654419,
        0.5449756383895874
      ],
      "min": [
        0.004736423492431641,
        -0.5434095859527588,
        -0.5437593460083008
      ],
      "type": "VEC3"
    },
    {
      "bufferView": 2,
      "byteOffset": 1667184,
      "componentType": 5126,
      "count": 68,
      "max": [
        4.6992423449410126e-05,
        1.0,
        1.0
      ],
      "min": [
        -4.704734237748198e-06,
        -1.0,
        -1.0
      ],
      "type": "VEC3"
    },
    {
      "bufferView": 3,
      "byteOffset": 30016,
      "componentType": 5126,
      "count": 68,
      "max": [
        -1.0,
        3.3228625397896394e-05,
        3.322869088151492e-05,
        1.0
      ],
      "min": [
        -1.0,
        -3.326751766508096e-06,
        -3.326766773170675e-06,
        -1.0
      ],
      "type": "VEC4"
    },
    {
      "bufferView": 1,
      "byteOffset": 570464,
      "componentType": 5126,
      "count": 68,
      "max": [
        0.6331689953804016,
        0.8611760139465332
      ],
      "min": [
        0.3668310046195984,
        0.1388239860534668
      ],
      "type": "VEC2"
    },
    {
      "bufferView": 1,
      "byteOffset": 571008,
      "componentType": 5126,
      "count": 68,
      "max": [
        0.6331689953804016,
        0.8611760139465332
      ],
      "min": [
        0.3668310046195984,
        0.1388239860534668
      ],
      "type": "VEC2"
    },
    {
      "bufferView": 0,
      "byteOffset": 451512,
      "componentType": 5125,
      "count": 192,
      "type": "SCALAR"
    }
  ],
  "asset": {
    "extras": {
      "author": "DevPoly3D (https://sketchfab.com/DevPoly3D)",
      "license": "CC-BY-4.0 (http://creativecommons.org/licenses/by/4.0/)",
      "source": "https://sketchfab.com/3d-models/man-tgx-2010-v8-high-detail-semi-truck-34ce748d9a4b4de7b035cfe5cb97f5d1",
      "title": "MAN TGX 2010 V8 – High-Detail Semi-Truck"
    },
    "generator": "Sketchfab-17.7.0",
    "version": "2.0"
  },
  "bufferViews": [
    {
      "buffer": 0,
      "byteLength": 452280,
      "name": "floatBufferViews",
      "target": 34963
    },
    {
      "buffer": 0,
      "byteLength": 571552,
      "byteOffset": 452280,
      "byteStride": 8,
      "name": "floatBufferViews",
      "target": 34962
    },
    {
      "buffer": 0,
      "byteLength": 1668000,
      "byteOffset": 1023832,
      "byteStride": 12,
      "name": "floatBufferViews",
      "target": 34962
    },
    {
      "buffer": 0,
      "byteLength": 31104,
      "byteOffset": 2691832,
      "byteStride": 16,
      "name": "floatBufferViews",
      "target": 34962
    }
  ],
  "buffers": [
    {
      "byteLength": 2722936,
      "uri": "scene.bin"
    }
  ],
  "extensionsUsed": [
    "KHR_materials_emissive_strength"
  ],
  "images": [
    {
      "uri": "textures/Rims_baseColor.png"
    },
    {
      "uri": "textures/Hubs_baseColor.png"
    },
    {
      "uri": "textures/Tyre_sidewalls_baseColor.png"
    },
    {
      "uri": "textures/Tyre_sidewalls_normal.png"
    },
    {
      "uri": "textures/Tyre_tread_baseColor.png"
    },
    {
      "uri": "textures/Tyre_tread_normal.png"
    }
  ],
  "materials": [
    {
      "doubleSided": true,
      "name": "d75ac7d3-ea99-4386-8004-2b8b4d77a8ed.005__0",
      "pbrMetallicRoughness": {
        "metallicFactor": 0.0,
        "roughnessFactor": 0.6
      }
    },
    {
      "doubleSided": true,
      "name": "dark",
      "pbrMetallicRoughness": {
        "baseColorFactor": [
          0.0310623,
          0.0310623,
          0.0310623,
          1.0
        ],
        "metallicFactor": 0.0,
        "roughnessFactor": 0.4434299228340505
      }
    },
    {
      "doubleSided": true,
      "name": "Back_Trailor",
      "pbrMetallicRoughness": {
        "baseColorFactor": [
          0.507066,
          0.507066,
          0.507066,
          1.0
        ]
      }
    },
    {
      "doubleSided": true,
      "name": "Metalic",
      "pbrMetallicRoughness": {
        "baseColorFactor": [
          0.5978448804492565,
          0.5978448804492565,
          0.5978448804492565,
          1.0
        ]
      }
    },
    {
      "doubleSided": true,
      "name": "Material",
      "pbrMetallicRoughness": {
        "baseColorFactor": [
          0.00206339,
          0.00206339,
          0.00206339,
          1.0
        ],
        "metallicFactor": 0.0,
        "roughnessFactor": 0.0
      }
    },
    {
      "doubleSided": true,
      "name": "Darker_Most",
      "pbrMetallicRoughness": {
        "baseColorFactor": [
          0.00901784,
          0.00901784,
          0.00901784,
          1.0
        ]
      }
    },
    {
      "doubleSided": true,
      "name": "Grey",
      "pbrMetallicRoughness": {
        "baseColorFactor": [
          0.007166694805707362,
          0.07959374128080386,
          0.4788319434779161,
          1.0
        ],
        "metallicFactor": 0.6384781363143202,
        "roughnessFactor": 0.0
      }
    },
    {
      "doubleSided": true,
      "emissiveFactor": [
        1.0,
        1.0,
        1.0
      ],
      "extensions": {
        "KHR_materials_emissive_strength": {
          "emissiveStrength": 10.0
        }
      },
      "name": "White_Light",
      "pbrMetallicRoughness": {
        "baseColorFactor": [
          0.8,
          0.8,
          0.8,
          1.0
        ],
        "metallicFactor": 0.0,
        "roughnessFactor": 0.8211145618000169
      }
    },
    {
      "doubleSided": true,
      "emissiveFactor": [
        0.9213560469775335,
        1.0,
        0.0
      ],
      "extensions": {
        "KHR_materials_emissive_strength": {
          "emissiveStrength": 10.0
        }
      },
      "name": "Yellow_Loght_Black",
      "pbrMetallicRoughness": {
        "baseColorFactor": [
          0.9213560469775335,
          1.0,
          0.0,
          1.0
        ],
        "metallicFactor": 0.0,
        "roughnessFactor": 0.8211145618000169
      }
    },
    {
      "alphaMode": "BLEND",
      "doubleSided": true,
      "name": "Glass",
      "pbrMetallicRoughness": {
        "baseColorFactor": [
          0.8,
          0.8,
          0.8,
          0.047238239202252806
        ],
        "metallicFactor": 0.0,
        "roughnessFactor": 0.8211145618000169
      }
    },
    {
      "doubleSided": true,
      "emissiveFactor": [
        1.0,
        0.0,
        0.0
      ],
      "extensions": {
        "KHR_materials_emissive_strength": {
          "emissiveStrength": 10.0
        }
      },
      "name": "Red_Light_Back",
      "pbrMetallicRoughness": {
        "baseColorFactor": [
          1.0,
          0.0,
          0.0,
          1.0
        ],
        "metallicFactor": 0.0,
        "roughnessFactor": 0.8211145618000169
      }
    },
    {
      "doubleSided": true,
      "name": "Rims",
      "pbrMetallicRoughness": {
        "baseColorTexture": {
          "index": 0
        },
        "roughnessFactor": 0.3946678694639831
      }
    },
    {
      "doubleSided": true,
      "name": "Hubs",
      "pbrMetallicRoughness": {
        "baseColorTexture": {
          "index": 1
        },
        "metallicFactor": 0.0,
        "roughnessFactor": 0.8211145618000169
      }
    },
    {
      "doubleSided": true,
      "name": "Tyre_sidewalls",
      "normalTexture": {
        "index": 3
      },
      "pbrMetallicRoughness": {
        "baseColorTexture": {
          "index": 2
        },
        "metallicFactor": 0.0,
        "roughnessFactor": 0.15448650327724583
      }
    },
    {
      "doubleSided": true,
      "name": "Tyre_tread",
      "normalTexture": {
        "index": 5
      },
      "pbrMetallicRoughness": {
        "baseColorTexture": {
          "index": 4
        },
        "metallicFactor": 0.0,
        "roughnessFactor": 0.8211145618000169
      }
    }
  ],
  "meshes": [
    {
      "name": "d75ac7d3-ea99-4386-8004-2b8b4d77a8ed_dark_0",
      "primitives": [
        {
          "attributes": {
            "NORMAL": 1,
            "POSITION": 0,
            "TEXCOORD_0": 2
          },
          "indices": 3,
          "material": 1,
          "mode": 4
        }
      ]
    },
    {
      "name": "d75ac7d3-ea99-4386-8004-2b8b4d77a8ed_Back Trailor_0",
      "primitives": [
        {
          "attributes": {
            "NORMAL": 5,
            "POSITION": 4,
            "TEXCOORD_0": 6
          },
          "indices": 7,
          "material": 2,
          "mode": 4
        }
      ]
    },
    {
      "name": "d75ac7d3-ea99-4386-8004-2b8b4d77a8ed_Metalic_0",
      "primitives": [
        {
          "attributes": {
            "NORMAL": 9,
            "POSITION": 8,
            "TEXCOORD_0": 10
          },
          "indices": 11,
          "material": 3,
          "mode": 4
        }
      ]
    },
    {
      "name": "d75ac7d3-ea99-4386-8004-2b8b4d77a8ed_Material_0",
      "primitives": [
        {
          "attributes": {
            "NORMAL": 13,
            "POSITION": 12,
            "TEXCOORD_0": 14
          },
          "indices": 15,
          "material": 4,
          "mode": 4
        }
      ]
    },
    {
      "name": "d75ac7d3-ea99-4386-8004-2b8b4d77a8ed.001_Darker Most_0",
      "primitives": [
        {
          "attributes": {
            "NORMAL": 17,
            "POSITION": 16,
            "TEXCOORD_0": 18
          },
          "indices": 19,
          "material": 5,
          "mode": 4
        }
      ]
    },
    {
      "name": "d75ac7d3-ea99-4386-8004-2b8b4d77a8ed.001_Grey_0",
      "primitives": [
        {
          "attributes": {
            "NORMAL": 21,
            "POSITION": 20,
            "TEXCOORD_0": 22
          },
          "indices": 23,
          "material": 6,
          "mode": 4
        }
      ]
    },
    {
      "name": "d75ac7d3-ea99-4386-8004-2b8b4d77a8ed.001_Back Trailor_0",
      "primitives": [
        {
          "attributes": {
            "NORMAL": 25,
            "POSITION": 24,
            "TEXCOORD_0": 26
          },
          "indices": 27,
          "material": 2,
          "mode": 4
        }
      ]
    },
    {
      "name": "d75ac7d3-ea99-4386-8004-2b8b4d77a8ed.001_White Light_0",
      "primitives": [
        {
          "attributes": {
            "NORMAL": 29,
            "POSITION": 28,
            "TEXCOORD_0": 30
          },
          "indices": 31,
          "material": 7,
          "mode": 4
        }
      ]
    },
    {
      "name": "d75ac7d3-ea99-4386-8004-2b8b4d77a8ed.001_Yellow Loght Black_0",
      "primitives": [
        {
          "attributes": {
            "NORMAL": 33,
            "POSITION": 32,
            "TEXCOORD_0": 34
          },
          "indices": 35,
          "material": 8,
          "mode": 4
        }
      ]
    },
    {
      "name": "d75ac7d3-ea99-4386-8004-2b8b4d77a8ed.003_Material_0",
      "primitives": [
        {
          "attributes": {
            "NORMAL": 37,
            "POSITION": 36,
            "TEXCOORD_0": 38
          },
          "indices": 39,
          "material": 4,
          "mode": 4
        }
      ]
    },
    {
      "name": "d75ac7d3-ea99-4386-8004-2b8b4d77a8ed.002_Metalic_0",
      "primitives": [
        {
          "attributes": {
            "NORMAL": 41,
            "POSITION": 40,
            "TEXCOORD_0": 42
          },
          "indices": 43,
          "material": 3,
          "mode": 4
        }
      ]
    },
    {
      "name": "d75ac7d3-ea99-4386-8004-2b8b4d77a8ed.004_dark_0",
      "primitives": [
        {
          "attributes": {
            "NORMAL": 45,
            "POSITION": 44,
            "TEXCOORD_0": 46
          },
          "indices": 47,
          "material": 1,
          "mode": 4
        }
      ]
    },
    {
      "name": "d75ac7d3-ea99-4386-8004-2b8b4d77a8ed.005__0",
      "primitives": [
        {
          "attributes": {
            "NORMAL": 49,
            "POSITION": 48,
            "TEXCOORD_0": 50
          },
          "indices": 51,
          "material": 0,
          "mode": 4
        }
      ]
    },
    {
      "name": "d75ac7d3-ea99-4386-8004-2b8b4d77a8ed.006_dark_0",
      "primitives": [
        {
          "attributes": {
            "NORMAL": 53,
            "POSITION": 52,
            "TEXCOORD_0": 54
          },
          "indices": 55,
          "material": 1,
          "mode": 4
        }
      ]
    },
    {
      "name": "d75ac7d3-ea99-4386-8004-2b8b4d77a8ed.007__0",
      "primitives": [
        {
          "attributes": {
            "NORMAL": 57,
            "POSITION": 56,
            "TEXCOORD_0": 58
          },
          "indices": 59,
          "material": 0,
          "mode": 4
        }
      ]
    },
    {
      "name": "d75ac7d3-ea99-4386-8004-2b8b4d77a8ed.008_Darker Most_0",
      "primitives": [
        {
          "attributes": {
            "NORMAL": 61,
            "POSITION": 60,
            "TEXCOORD_0": 62
          },
          "indices": 63,
          "material": 5,
          "mode": 4
        }
      ]
    },
    {
      "name": "d75ac7d3-ea99-4386-8004-2b8b4d77a8ed.009_Material_0",
      "primitives": [
        {
          "attributes": {
            "NORMAL": 65,
            "POSITION": 64,
            "TEXCOORD_0": 66
          },
          "indices": 67,
          "material": 4,
          "mode": 4
        }
      ]
    },
    {
      "name": "d75ac7d3-ea99-4386-8004-2b8b4d77a8ed.009_dark_0",
      "primitives": [
        {
          "attributes": {
            "NORMAL": 69,
            "POSITION": 68,
            "TEXCOORD_0": 70
          },
          "indices": 71,
          "material": 1,
          "mode": 4
        }
      ]
    },
    {
      "name": "d75ac7d3-ea99-4386-8004-2b8b4d77a8ed.010_dark_0",
      "primitives": [
        {
          "attributes": {
            "NORMAL": 73,
            "POSITION": 72,
            "TEXCOORD_0": 74
          },
          "indices": 75,
          "material": 1,
          "mode": 4
        }
      ]
    },
    {
      "name": "d75ac7d3-ea99-4386-8004-2b8b4d77a8ed.011_Material_0",
      "primitives": [
        {
          "attributes": {
            "NORMAL": 77,
            "POSITION": 76,
            "TEXCOORD_0": 78
          },
          "indices": 79,
          "material": 4,
          "mode": 4
        }
      ]
    },
    {
      "name": "d75ac7d3-ea99-4386-8004-2b8b4d77a8ed.011_Grey_0",
      "primitives": [
        {
          "attributes": {
            "NORMAL": 81,
            "POSITION": 80,
            "TEXCOORD_0": 82
          },
          "indices": 83,
          "material": 6,
          "mode": 4
        }
      ]
    },
    {
      "name": "d75ac7d3-ea99-4386-8004-2b8b4d77a8ed.012_Grey_0",
      "primitives": [
        {
          "attributes": {
            "NORMAL": 85,
            "POSITION": 84,
            "TEXCOORD_0": 86
          },
          "indices": 87,
          "material": 6,
          "mode": 4
        }
      ]
    },
    {
      "name": "d75ac7d3-ea99-4386-8004-2b8b4d77a8ed.012_Material_0",
      "primitives": [
        {
          "attributes": {
            "NORMAL": 89,
            "POSITION": 88,
            "TEXCOORD_0": 90
          },
          "indices": 91,
          "material": 4,
          "mode": 4
        }
      ]
    },
    {
      "name": "d75ac7d3-ea99-4386-8004-2b8b4d77a8ed.013_Material_0",
      "primitives": [
        {
          "attributes": {
            "NORMAL": 93,
            "POSITION": 92,
            "TEXCOORD_0": 94
          },
          "indices": 95,
          "material": 4,
          "mode": 4
        }
      ]
    },
    {
      "name": "d75ac7d3-ea99-4386-8004-2b8b4d77a8ed.014_Material_0",
      "primitives": [
        {
          "attributes": {
            "NORMAL": 97,
            "POSITION": 96,
            "TEXCOORD_0": 98
          },
          "indices": 99,
          "material": 4,
          "mode": 4
        }
      ]
    },
    {
      "name": "d75ac7d3-ea99-4386-8004-2b8b4d77a8ed.015_Grey_0",
      "primitives": [
        {
          "attributes": {
            "NORMAL": 101,
            "POSITION": 100,
            "TEXCOORD_0": 102
          },
          "indices": 103,
          "material": 6,
          "mode": 4
        }
      ]
    },
    {
      "name": "d75ac7d3-ea99-4386-8004-2b8b4d77a8ed.015_Back Trailor_0",
      "primitives": [
        {
          "attributes": {
            "NORMAL": 105,
            "POSITION": 104,
            "TEXCOORD_0": 106
          },
          "indices": 107,
          "material": 2,
          "mode": 4
        }
      ]
    },
    {
      "name": "d75ac7d3-ea99-4386-8004-2b8b4d77a8ed.016_Metalic_0",
      "primitives": [
        {
          "attributes": {
            "NORMAL": 109,
            "POSITION": 108,
            "TEXCOORD_0": 110
          },
          "indices": 111,
          "material": 3,
          "mode": 4
        }
      ]
    },
    {
      "name": "d75ac7d3-ea99-4386-8004-2b8b4d77a8ed.018_Glass_0",
      "primitives": [
        {
          "attributes": {
            "NORMAL": 113,
            "POSITION": 112,
            "TEXCOORD_0": 114
          },
          "indices": 115,
          "material": 9,
          "mode": 4
        }
      ]
    },
    {
      "name": "Cube_Darker Most_0",
      "primitives": [
        {
          "attributes": {
            "NORMAL": 117,
            "POSITION": 116,
            "TEXCOORD_0": 118
          },
          "indices": 119,
          "material": 5,
          "mode": 4
        }
      ]
    },
    {
      "name": "Cube_Red Light Back_0",
      "primitives": [
        {
          "attributes": {
            "NORMAL": 121,
            "POSITION": 120,
            "TEXCOORD_0": 122
          },
          "indices": 123,
          "material": 10,
          "mode": 4
        }
      ]
    },
    {
      "name": "Cube_Yellow Loght Black_0",
      "primitives": [
        {
          "attributes": {
            "NORMAL": 125,
            "POSITION": 124,
            "TEXCOORD_0": 126
          },
          "indices": 127,
          "material": 8,
          "mode": 4
        }
      ]
    },
    {
      "name": "Cube.001_Yellow Loght Black_0",
      "primitives": [
        {
          "attributes": {
            "NORMAL": 129,
            "POSITION": 128,
            "TEXCOORD_0": 130
          },
          "indices": 131,
          "material": 8,
          "mode": 4
        }
      ]
    },
    {
      "name": "d75ac7d3-ea99-4386-8004-2b8b4d77a8ed.017_Grey_0",
      "primitives": [
        {
          "attributes": {
            "NORMAL": 133,
            "POSITION": 132,
            "TEXCOORD_0": 134
          },
          "indices": 135,
          "material": 6,
          "mode": 4
        }
      ]
    },
    {
      "name": "d75ac7d3-ea99-4386-8004-2b8b4d77a8ed.017_Darker Most_0",
      "primitives": [
        {
          "attributes": {
            "NORMAL": 137,
            "POSITION": 136,
            "TEXCOORD_0": 138
          },
          "indices": 139,
          "material": 5,
          "mode": 4
        }
      ]
    },
    {
      "name": "Object_3_Rims_0",
      "primitives": [
        {
          "attributes": {
            "NORMAL": 141,
            "POSITION": 140,
            "TEXCOORD_0": 142
          },
          "indices": 143,
          "material": 11,
          "mode": 4
        }
      ]
    },
    {
      "name": "Object_3_Hubs_0",
      "primitives": [
        {
          "attributes": {
            "NORMAL": 145,
            "POSITION": 144,
            "TEXCOORD_0": 146
          },
          "indices": 147,
          "material": 12,
          "mode": 4
        }
      ]
    },
    {
      "name": "Object_3_Tyre_sidewalls_0",
      "primitives": [
        {
          "attributes": {
            "NORMAL": 149,
            "POSITION": 148,
            "TANGENT": 150,
            "TEXCOORD_0": 151,
            "TEXCOORD_1": 152
          },
          "indices": 153,
          "material": 13,
          "mode": 4
        }
      ]
    },
    {
      "name": "Object_3_Tyre_tread_0",
      "primitives": [
        {
          "attributes": {
            "NORMAL": 155,
            "POSITION": 154,
            "TANGENT": 156,
            "TEXCOORD_0": 157,
            "TEXCOORD_1": 158
          },
          "indices": 159,
          "material": 14,
          "mode": 4
        }
      ]
    },
    {
      "name": "Object_3.001_Rims_0",
      "primitives": [
        {
          "attributes": {
            "NORMAL": 161,
            "POSITION": 160,
            "TEXCOORD_0": 162
          },
          "indices": 163,
          "material": 11,
          "mode": 4
        }
      ]
    },
    {
      "name": "Object_3.001_Hubs_0",
      "primitives": [
        {
          "attributes": {
            "NORMAL": 165,
            "POSITION": 164,
            "TEXCOORD_0": 166
          },
          "indices": 167,
          "material": 12,
          "mode": 4
        }
      ]
    },
    {
      "name": "Object_3.001_Tyre_sidewalls_0",
      "primitives": [
        {
          "attributes": {
            "NORMAL": 169,
            "POSITION": 168,
            "TANGENT": 170,
            "TEXCOORD_0": 171,
            "TEXCOORD_1": 172
          },
          "indices": 173,
          "material": 13,
          "mode": 4
        }
      ]
    },
    {
      "name": "Object_3.001_Tyre_tread_0",
      "primitives": [
        {
          "attributes": {
            "NORMAL": 175,
            "POSITION": 174,
            "TANGENT": 176,
            "TEXCOORD_0": 177,
            "TEXCOORD_1": 178
          },
          "indices": 179,
          "material": 14,
          "mode": 4
        }
      ]
    },
    {
      "name": "Object_3.002_Rims_0",
      "primitives": [
        {
          "attributes": {
            "NORMAL": 181,
            "POSITION": 180,
            "TEXCOORD_0": 182
          },
          "indices": 183,
          "material": 11,
          "mode": 4
        }
      ]
    },
    {
      "name": "Object_3.002_Hubs_0",
      "primitives": [
        {
          "attributes": {
            "NORMAL": 185,
            "POSITION": 184,
            "TEXCOORD_0": 186
          },
          "indices": 187,
          "material": 12,
          "mode": 4
        }
      ]
    },
    {
      "name": "Object_3.002_Tyre_sidewalls_0",
      "primitives": [
        {
          "attributes": {
            "NORMAL": 189,
            "POSITION": 188,
            "TANGENT": 190,
            "TEXCOORD_0": 191,
            "TEXCOORD_1": 192
          },
          "indices": 193,
          "material": 13,
          "mode": 4
        }
      ]
    },
    {
      "name": "Object_3.002_Tyre_tread_0",
      "primitives": [
        {
          "attributes": {
            "NORMAL": 195,
            "POSITION": 194,
            "TANGENT": 196,
            "TEXCOORD_0": 197,
            "TEXCOORD_1": 198
          },
          "indices": 199,
          "material": 14,
          "mode": 4
        }
      ]
    }
  ],
  "nodes": [
    {
      "children": [
        1
      ],
      "matrix": [
        1.0,
        0.0,
        0.0,
        0.0,
        0.0,
        2.220446049250313e-16,
        -1.0,
        0.0,
        0.0,
        1.0,
        2.220446049250313e-16,
        0.0,
        0.0,
        0.0,
        0.0,
        1.0
      ],
      "name": "Sketchfab_model"
    },
    {
      "children": [
        2
      ],
      "matrix": [
        0.009999999776482582,
        0.0,
        0.0,
        0.0,
        0.0,
        0.0,
        0.009999999776482582,
        0.0,
        0.0,
        -0.009999999776482582,
        0.0,
        0.0,
        0.0,
        0.0,
        0.0,
        1.0
      ],
      "name": "Man truck.fbx"
    },
    {
      "children": [
        3,
        8,
        14,
        16,
        18,
        20,
        22,
        24,
        26,
        28,
        31,
        33,
        36,
        39,
        41,
        43,
        46,
        48,
        50,
        54,
        56,
        59,
        64,
        69
      ],
      "name": "RootNode"
    },
    {
      "children": [
        4,
        5,
        6,
        7
      ],
      "matrix": [
        100.0,
        0.0,
        0.0,
        0.0,
        0.0,
        -1.629206793918314e-05,
        -99.99999999999868,
        0.0,
        0.0,
        99.99999999999868,
        -1.629206793918314e-05,
        0.0,
        0.0,
        0.0,
        0.0,
        1.0
      ],
      "name": "d75ac7d3-ea99-4386-8004-2b8b4d77a8ed"
    },
    {
      "mesh": 0,
      "name": "d75ac7d3-ea99-4386-8004-2b8b4d77a8ed_dark_0"
    },
    {
      "mesh": 1,
      "name": "d75ac7d3-ea99-4386-8004-2b8b4d77a8ed_Back Trailor_0"
    },
    {
      "mesh": 2,
      "name": "d75ac7d3-ea99-4386-8004-2b8b4d77a8ed_Metalic_0"
    },
    {
      "mesh": 3,
      "name": "d75ac7d3-ea99-4386-8004-2b8b4d77a8ed_Material_0"
    },
    {
      "children": [
        9,
        10,
        11,
        12,
        13
      ],
      "matrix": [
        100.0,
        0.0,
        0.0,
        0.0,
        0.0,
        -1.629206793918314e-05,
        -99.99999999999868,
        0.0,
        0.0,
        99.99999999999868,
        -1.629206793918314e-05,
        0.0,
        18.391036987304688,
        1219.108154296875,
        2070.989013671875,
        1.0
      ],
      "name": "d75ac7d3-ea99-4386-8004-2b8b4d77a8ed.001"
    },
    {
      "mesh": 4,
      "name": "d75ac7d3-ea99-4386-8004-2b8b4d77a8ed.001_Darker Most_0"
    },
    {
      "mesh": 5,
      "name": "d75ac7d3-ea99-4386-8004-2b8b4d77a8ed.001_Grey_0"
    },
    {
      "mesh": 6,
      "name": "d75ac7d3-ea99-4386-8004-2b8b4d77a8ed.001_Back Trailor_0"
    },
    {
      "mesh": 7,
      "name": "d75ac7d3-ea99-4386-8004-2b8b4d77a8ed.001_White Light_0"
    },
    {
      "mesh": 8,
      "name": "d75ac7d3-ea99-4386-8004-2b8b4d77a8ed.001_Yellow Loght Black_0"
    },
    {
      "children": [
        15
      ],
      "matrix": [
        100.0,
        0.0,
        0.0,
        0.0,
        0.0,
        -1.629206793918314e-05,
        -99.99999999999868,
        0.0,
        0.0,
        99.99999999999868,
        -1.629206793918314e-05,
        0.0,
        0.0,
        0.0,
        0.0,
        1.0
      ],
      "name": "d75ac7d3-ea99-4386-8004-2b8b4d77a8ed.003"
    },
    {
      "mesh": 9,
      "name": "d75ac7d3-ea99-4386-8004-2b8b4d77a8ed.003_Material_0"
    },
    {
      "children": [
        17
      ],
      "matrix": [
        100.0,
        0.0,
        0.0,
        0.0,
        0.0,
        -1.629206793918314e-05,
        -99.99999999999868,
        0.0,
        0.0,
        99.99999999999868,
        -1.629206793918314e-05,
        0.0,
        0.0,
        0.0,
        0.0,
        1.0
      ],
      "name": "d75ac7d3-ea99-4386-8004-2b8b4d77a8ed.002"
    },
    {
      "mesh": 10,
      "name": "d75ac7d3-ea99-4386-8004-2b8b4d77a8ed.002_Metalic_0"
    },
    {
      "children": [
        19
      ],
      "matrix": [
        100.0,
        0.0,
        0.0,
        0.0,
        0.0,
        -1.629206793918314e-05,
        -99.99999999999868,
        0.0,
        0.0,
        99.99999999999868,
        -1.629206793918314e-05,
        0.0,
        0.0,
        0.0,
        0.0,
        1.0
      ],
      "name": "d75ac7d3-ea99-4386-8004-2b8b4d77a8ed.004"
    },
    {
      "mesh": 11,
      "name": "d75ac7d3-ea99-4386-8004-2b8b4d77a8ed.004_dark_0"
    },
    {
      "children": [
        21
      ],
      "matrix": [
        100.0,
        0.0,
        0.0,
        0.0,
        0.0,
        -1.629206793918314e-05,
        -99.99999999999868,
        0.0,
        0.0,
        99.99999999999868,
        -1.629206793918314e-05,
        0.0,
        0.0,
        0.0,
        0.0,
        1.0
      ],
      "name": "d75ac7d3-ea99-4386-8004-2b8b4d77a8ed.005"
    },
    {
      "mesh": 12,
      "name": "d75ac7d3-ea99-4386-8004-2b8b4d77a8ed.005__0"
    },
    {
      "children": [
        23
      ],
      "matrix": [
        100.0,
        0.0,
        0.0,
        0.0,
        0.0,
        -1.629206793918314e-05,
        -99.99999999999868,
        0.0,
        0.0,
        99.99999999999868,
        -1.629206793918314e-05,
        0.0,
        0.0,
        0.0,
        0.0,
        1.0
      ],
      "name": "d75ac7d3-ea99-4386-8004-2b8b4d77a8ed.006"
    },
    {
      "mesh": 13,
      "name": "d75ac7d3-ea99-4386-8004-2b8b4d77a8ed.006_dark_0"
    },
    {
      "children": [
        25
      ],
      "matrix": [
        100.0,
        0.0,
        0.0,
        0.0,
        0.0,
        -1.629206793918314e-05,
        -99.99999999999868,
        0.0,
        0.0,
        99.99999999999868,
        -1.629206793918314e-05,
        0.0,
        0.0,
        0.0,
        0.0,
        1.0
      ],
      "name": "d75ac7d3-ea99-4386-8004-2b8b4d77a8ed.007"
    },
    {
      "mesh": 14,
      "name": "d75ac7d3-ea99-4386-8004-2b8b4d77a8ed.007__0"
    },
    {
      "children": [
        27
      ],
      "matrix": [
        100.0,
        0.0,
        0.0,
        0.0,
        0.0,
        -1.629206793918314e-05,
        -99.99999999999868,
        0.0,
        0.0,
        99.99999999999868,
        -1.629206793918314e-05,
        0.0,
        0.0,
        0.0,
        0.0,
        1.0
      ],
      "name": "d75ac7d3-ea99-4386-8004-2b8b4d77a8ed.008"
    },
    {
      "mesh": 15,
      "name": "d75ac7d3-ea99-4386-8004-2b8b4d77a8ed.008_Darker Most_0"
    },
    {
      "children": [
        29,
        30
      ],
      "matrix": [
        100.0,
        0.0,
        0.0,
        0.0,
        0.0,
        -1.629206793918314e-05,
        -99.99999999999868,
        0.0,
        0.0,
        99.99999999999868,
        -1.629206793918314e-05,
        0.0,
        0.0,
        0.0,
        0.0,
        1.0
      ],
      "name": "d75ac7d3-ea99-4386-8004-2b8b4d77a8ed.009"
    },
    {
      "mesh": 16,
      "name": "d75ac7d3-ea99-4386-8004-2b8b4d77a8ed.009_Material_0"
    },
    {
      "mesh": 17,
      "name": "d75ac7d3-ea99-4386-8004-2b8b4d77a8ed.009_dark_0"
    },
    {
      "children": [
        32
      ],
      "matrix": [
        100.0,
        0.0,
        0.0,
        0.0,
        0.0,
        -1.629206793918314e-05,
        -99.99999999999868,
        0.0,
        0.0,
        99.99999999999868,
        -1.629206793918314e-05,
        0.0,
        0.0,
        0.0,
        0.0,
        1.0
      ],
      "name": "d75ac7d3-ea99-4386-8004-2b8b4d77a8ed.010"
    },
    {
      "mesh": 18,
      "name": "d75ac7d3-ea99-4386-8004-2b8b4d77a8ed.010_dark_0"
    },
    {
      "children": [
        34,
        35
      ],
      "matrix": [
        100.0,
        0.0,
        0.0,
        0.0,
        0.0,
        -1.629206793918314e-05,
        -99.99999999999868,
        0.0,
        0.0,
        99.99999999999868,
        -1.629206793918314e-05,
        0.0,
        0.0,
        0.0,
        0.0,
        1.0
      ],
      "name": "d75ac7d3-ea99-4386-8004-2b8b4d77a8ed.011"
    },
    {
      "mesh": 19,
      "name": "d75ac7d3-ea99-4386-8004-2b8b4d77a8ed.011_Material_0"
    },
    {
      "mesh": 20,
      "name": "d75ac7d3-ea99-4386-8004-2b8b4d77a8ed.011_Grey_0"
    },
    {
      "children": [
        37,
        38
      ],
      "matrix": [
        100.0,
        0.0,
        0.0,
        0.0,
        0.0,
        -1.629206793918314e-05,
        -99.99999999999868,
        0.0,
        0.0,
        99.99999999999868,
        -1.629206793918314e-05,
        0.0,
        0.0,
        0.0,
        0.0,
        1.0
      ],
      "name": "d75ac7d3-ea99-4386-8004-2b8b4d77a8ed.012"
    },
    {
      "mesh": 21,
      "name": "d75ac7d3-ea99-4386-8004-2b8b4d77a8ed.012_Grey_0"
    },
    {
      "mesh": 22,
      "name": "d75ac7d3-ea99-4386-8004-2b8b4d77a8ed.012_Material_0"
    },
    {
      "children": [
        40
      ],
      "matrix": [
        100.0,
        0.0,
        0.0,
        0.0,
        0.0,
        -1.629206793918314e-05,
        -99.99999999999868,
        0.0,
        0.0,
        99.99999999999868,
        -1.629206793918314e-05,
        0.0,
        0.0,
        0.0,
        0.0,
        1.0
      ],
      "name": "d75ac7d3-ea99-4386-8004-2b8b4d77a8ed.013"
    },
    {
      "mesh": 23,
      "name": "d75ac7d3-ea99-4386-8004-2b8b4d77a8ed.013_Material_0"
    },
    {
      "children": [
        42
      ],
      "matrix": [
        100.0,
        0.0,
        0.0,
        0.0,
        0.0,
        -1.629206793918314e-05,
        -99.99999999999868,
        0.0,
        0.0,
        99.99999999999868,
        -1.629206793918314e-05,
        0.0,
        0.0,
        0.0,
        0.0,
        1.0
      ],
      "name": "d75ac7d3-ea99-4386-8004-2b8b4d77a8ed.014"
    },
    {
      "mesh": 24,
      "name": "d75ac7d3-ea99-4386-8004-2b8b4d77a8ed.014_Material_0"
    },
    {
      "children": [
        44,
        45
      ],
      "matrix": [
        100.0,
        0.0,
        0.0,
        0.0,
        0.0,
        -1.629206793918314e-05,
        -99.99999999999868,
        0.0,
        0.0,
        99.99999999999868,
        -1.629206793918314e-05,
        0.0,
        10.257272720336914,
        466.2278137207031,
        -567.2059936523438,
        1.0
      ],
      "name": "d75ac7d3-ea99-4386-8004-2b8b4d77a8ed.015"
    },
    {
      "mesh": 25,
      "name": "d75ac7d3-ea99-4386-8004-2b8b4d77a8ed.015_Grey_0"
    },
    {
      "mesh": 26,
      "name": "d75ac7d3-ea99-4386-8004-2b8b4d77a8ed.015_Back Trailor_0"
    },
    {
      "children": [
        47
      ],
      "matrix": [
        100.0,
        0.0,
        0.0,
        0.0,
        0.0,
        -1.629206793918314e-05,
        -99.99999999999868,
        0.0,
        0.0,
        99.99999999999868,
        -1.629206793918314e-05,
        0.0,
        0.0,
        0.0,
        0.0,
        1.0
      ],
      "name": "d75ac7d3-ea99-4386-8004-2b8b4d77a8ed.016"
    },
    {
      "mesh": 27,
      "name": "d75ac7d3-ea99-4386-8004-2b8b4d77a8ed.016_Metalic_0"
    },
    {
      "children": [
        49
      ],
      "matrix": [
        100.0,
        0.0,
        0.0,
        0.0,
        0.0,
        -1.629206793918314e-05,
        -99.99999999999868,
        0.0,
        0.0,
        99.99999999999868,
        -1.629206793918314e-05,
        0.0,
        0.0,
        0.0,
        0.0,
        1.0
      ],
      "name": "d75ac7d3-ea99-4386-8004-2b8b4d77a8ed.018"
    },
    {
      "mesh": 28,
      "name": "d75ac7d3-ea99-4386-8004-2b8b4d77a8ed.018_Glass_0"
    },
    {
      "children": [
        51,
        52,
        53
      ],
      "matrix": [
        12.345381736755371,
        0.0,
        0.0,
        0.0,
        0.0,
        -2.0113179799036925e-06,
        -12.345381736755208,
        0.0,
        0.0,
        9.686431884765497,
        -1.5781200635487137e-06,
        0.0,
        566.7216186523438,
        530.9656982421875,
        -1641.598876953125,
        1.0
      ],
      "name": "Cube"
    },
    {
      "mesh": 29,
      "name": "Cube_Darker Most_0"
    },
    {
      "mesh": 30,
      "name": "Cube_Red Light Back_0"
    },
    {
      "mesh": 31,
      "name": "Cube_Yellow Loght Black_0"
    },
    {
      "children": [
        55
      ],
      "matrix": [
        4.896106719970703,
        0.0,
        0.0,
        0.0,
        0.0,
        -7.976770331925382e-07,
        -4.896106719970638,
        0.0,
        0.0,
        4.896106719970638,
        -7.976770331925382e-07,
        0.0,
        656.416259765625,
        445.2033996582031,
        1950.5455322265625,
        1.0
      ],
      "name": "Cube.001"
    },
    {
      "mesh": 32,
      "name": "Cube.001_Yellow Loght Black_0"
    },
    {
      "children": [
        57,
        58
      ],
      "matrix": [
        100.0,
        0.0,
        0.0,
        0.0,
        0.0,
        -1.629206793918314e-05,
        -99.99999999999868,
        0.0,
        0.0,
        99.99999999999868,
        -1.629206793918314e-05,
        0.0,
        0.0,
        0.0,
        0.0,
        1.0
      ],
      "name": "d75ac7d3-ea99-4386-8004-2b8b4d77a8ed.017"
    },
    {
      "mesh": 33,
      "name": "d75ac7d3-ea99-4386-8004-2b8b4d77a8ed.017_Grey_0"
    },
    {
      "mesh": 34,
      "name": "d75ac7d3-ea99-4386-8004-2b8b4d77a8ed.017_Darker Most_0"
    },
    {
      "children": [
        60,
        61,
        62,
        63
      ],
      "matrix": [
        662.0013427734375,
        0.0,
        0.0,
        0.0,
        0.0,
        -0.0001078537085229531,
        -662.0013427734287,
        0.0,
        0.0,
        662.0013427734287,
        -0.0001078537085229531,
        0.0,
        608.934814453125,
        312.1849060058594,
        -1198.2930908203125,
        1.0
      ],
      "name": "Object_3"
    },
    {
      "mesh": 35,
      "name": "Object_3_Rims_0"
    },
    {
      "mesh": 36,
      "name": "Object_3_Hubs_0"
    },
    {
      "mesh": 37,
      "name": "Object_3_Tyre_sidewalls_0"
    },
    {
      "mesh": 38,
      "name": "Object_3_Tyre_tread_0"
    },
    {
      "children": [
        65,
        66,
        67,
        68
      ],
      "matrix": [
        468.10561575474463,
        2.1354711337134625e-05,
        468.1057478213868,
        0.0,
        468.105747821385,
        -8.64990010662117e-05,
        -468.1056157547389,
        0.0,
        4.606397551080451e-05,
        662.0013427734315,
        -7.626407782678892e-05,
        0.0,
        784.3170776367188,
        328.92181396484375,
        1126.830078125,
        1.0
      ],
      "name": "Object_3.001"
    },
    {
      "mesh": 39,
      "name": "Object_3.001_Rims_0"
    },
    {
      "mesh": 40,
      "name": "Object_3.001_Hubs_0"
    },
    {
      "mesh": 41,
      "name": "Object_3.001_Tyre_sidewalls_0"
    },
    {
      "mesh": 42,
      "name": "Object_3.001_Tyre_tread_0"
    },
    {
      "children": [
        70,
        71,
        72,
        73
      ],
      "matrix": [
        468.10561575474463,
        2.1354711337134625e-05,
        468.1057478213868,
        0.0,
        468.105747821385,
        -8.64990010662117e-05,
        -468.1056157547389,
        0.0,
        4.606397551080451e-05,
        662.0013427734315,
        -7.626407782678892e-05,
        0.0,
        -784.3299560546875,
        328.92181396484375,
        1126.830078125,
        1.0
      ],
      "name": "Object_3.002"
    },
    {
      "mesh": 43,
      "name": "Object_3.002_Rims_0"
    },
    {
      "mesh": 44,
      "name": "Object_3.002_Hubs_0"
    },
    {
      "mesh": 45,
      "name": "Object_3.002_Tyre_sidewalls_0"
    },
    {
      "mesh": 46,
      "name": "Object_3.002_Tyre_tread_0"
    }
  ],
  "samplers": [
    {
      "magFilter": 9729,
      "minFilter": 9987,
      "wrapS": 10497,
      "wrapT": 10497
    }
  ],
  "scene": 0,
  "scenes": [
    {
      "name": "Sketchfab_Scene",
      "nodes": [
        0
      ]
    }
  ],
  "textures": [
    {
      "sampler": 0,
      "source": 0
    },
    {
      "sampler": 0,
      "source": 1
    },
    {
      "sampler": 0,
      "source": 2
    },
    {
      "sampler": 0,
      "source": 3
    },
    {
      "sampler": 0,
      "source": 4
    },
    {
      "sampler": 0,
      "source": 5
    }
  ]
}
